<svg width="672.5238037109375px" height="143.2075225830078px" xmlns="http://www.w3.org/2000/svg" viewBox="-86.26190185546875 3.3962387084960994 672.5238037109375 143.2075225830078" style="background: rgba(0, 0, 0, 0);" preserveAspectRatio="xMidYMid"><defs><filter id="editing-hole" x="-100%" y="-100%" width="300%" height="300%"><feFlood flood-color="#000" result="black"></feFlood><feMorphology operator="dilate" radius="2" in="SourceGraphic" result="erode"></feMorphology><feGaussianBlur in="erode" stdDeviation="4" result="blur"></feGaussianBlur><feOffset in="blur" dx="2" dy="2" result="offset"></feOffset><feComposite operator="atop" in="offset" in2="black" result="merge"></feComposite><feComposite operator="in" in="merge" in2="SourceGraphic" result="inner-shadow"></feComposite></filter></defs><g filter="url(#editing-hole)"><g transform="translate(11.394063711166382, 103.86000061035156)"><path d="M7.96 0L-1.01 0L13.10-51.48L29.41-51.48L32.99-22.07L47.50-51.48L61.15-51.48L62.56-12.95L62.56-12.95Q62.87-5.30 66.61-2.96L66.61-2.96L66.61-2.96Q65.75-1.40 63.26 0.08L63.26 0.08L63.26 0.08Q60.76 1.56 57.45 1.56L57.45 1.56L57.45 1.56Q54.13 1.56 52.18 0.62L52.18 0.62L52.18 0.62Q50.23-0.31 49.14-1.87L49.14-1.87L49.14-1.87Q47.19-4.68 47.19-10.06L47.19-10.06L47.19-34.16L31.82 0L22.15 0L16.69-35.02L7.96 0ZM73.36-2.34L73.36-2.34L73.36-2.34Q71.53-4.37 70.71-7.57L70.71-7.57L70.71-7.57Q69.89-10.76 69.89-15.99L69.89-15.99L69.89-15.99Q69.89-21.22 71.68-25.97L71.68-25.97L71.68-25.97Q73.48-30.73 76.75-34.16L76.75-34.16L76.75-34.16Q83.46-41.34 94.54-41.34L94.54-41.34L94.54-41.34Q98.51-41.34 101.40-40.01L101.40-40.01L114.74-41.34L108.97-10.92L108.97-10.92Q108.73-9.98 108.73-8.27L108.73-8.27L108.73-8.27Q108.73-6.55 109.78-5.46L109.78-5.46L109.78-5.46Q110.84-4.37 112.40-4.21L112.40-4.21L112.40-4.21Q111.62-1.56 108.77 0L108.77 0L108.77 0Q105.92 1.56 102.73 1.56L102.73 1.56L102.73 1.56Q99.53 1.56 97.38 0.35L97.38 0.35L97.38 0.35Q95.24-0.86 94.61-2.89L94.61-2.89L94.61-2.89Q93.37-0.94 90.71 0.31L90.71 0.31L90.71 0.31Q88.06 1.56 84.51 1.56L84.51 1.56L84.51 1.56Q80.96 1.56 78.08 0.62L78.08 0.62L78.08 0.62Q75.19-0.31 73.36-2.34ZM89.82-34.01L89.82-34.01L89.82-34.01Q88.92-32.60 88.14-30.23L88.14-30.23L88.14-30.23Q87.36-27.85 86.07-21.49L86.07-21.49L86.07-21.49Q84.79-15.13 84.79-10.61L84.79-10.61L84.79-10.61Q84.79-6.08 85.49-4.76L85.49-4.76L85.49-4.76Q86.19-3.43 87.44-3.43L87.44-3.43L87.44-3.43Q89.93-3.43 91.77-5.81L91.77-5.81L91.77-5.81Q93.60-8.19 94.30-12.40L94.30-12.40L98.44-35.26L98.44-35.26Q96.80-36.66 94.89-36.66L94.89-36.66L94.89-36.66Q92.98-36.66 91.84-36.04L91.84-36.04L91.84-36.04Q90.71-35.41 89.82-34.01ZM143.36-21.92L143.36-21.92L143.36-21.92Q146.17-26.91 146.17-31.98L146.17-31.98L146.17-31.98Q146.17-35.33 143.75-35.33L143.75-35.33L143.75-35.33Q141.88-35.33 139.93-32.14L139.93-32.14L139.93-32.14Q137.90-28.94 137.28-24.80L137.28-24.80L133.22 0L117.08 1.56L125.03-39.78L137.90-41.34L136.50-33.46L136.50-33.46Q140.32-41.34 148.90-41.34L148.90-41.34L148.90-41.34Q153.43-41.34 155.88-39L155.88-39L155.88-39Q158.34-36.66 158.34-31.86L158.34-31.86L158.34-31.86Q158.34-27.07 155.18-24.02L155.18-24.02L155.18-24.02Q152.02-20.98 146.64-20.98L146.64-20.98L146.64-20.98Q144.30-20.98 143.36-21.92ZM179.71-36.97L179.71-36.97L179.71-36.97Q183.92-41.34 192.82-41.34L192.82-41.34L192.82-41.34Q197.73-41.34 200.42-38.73L200.42-38.73L200.42-38.73Q203.11-36.11 203.11-31.32L203.11-31.32L203.11-31.32Q203.11-26.52 200.42-23.13L200.42-23.13L200.42-23.13Q197.73-19.73 192.74-18.33L192.74-18.33L192.74-18.33Q193.13-16.77 193.67-15.13L193.67-15.13L194.77-12.01L194.77-12.01Q196.25-8.03 197.42-6.63L197.42-6.63L197.42-6.63Q198.59-5.23 200.15-4.76L200.15-4.76L200.15-4.76Q199.29-1.56 196.17 0.16L196.17 0.16L196.17 0.16Q193.67 1.56 190.24 1.56L190.24 1.56L190.24 1.56Q180.18 1.56 178.85-13.96L178.85-13.96L178.85-13.96Q178.62-16.15 178.62-18.33L178.62-18.33L178.62-18.33Q182.52-19.42 185.25-23.09L185.25-23.09L185.25-23.09Q187.98-26.75 187.98-31.04L187.98-31.04L187.98-31.04Q187.98-35.33 184.94-35.33L184.94-35.33L184.94-35.33Q182.75-35.33 181.04-32.92L181.04-32.92L181.04-32.92Q179.32-30.50 178.54-26.36L178.54-26.36L173.39 0L157.64 1.56L168.56-54.60L184.24-56.16L182.44-46.88L182.44-46.88Q181.27-40.33 179.71-36.97ZM238.29-13.18L238.29-13.18L238.29-13.18Q240.24-11.86 240.24-8.93L240.24-8.93L240.24-8.93Q240.24-6.01 238.76-4.13L238.76-4.13L238.76-4.13Q237.28-2.26 234.86-1.01L234.86-1.01L234.86-1.01Q229.87 1.56 224.48 1.56L224.48 1.56L224.48 1.56Q219.10 1.56 215.94 0.39L215.94 0.39L215.94 0.39Q212.78-0.78 210.68-2.96L210.68-2.96L210.68-2.96Q206.54-7.10 206.54-14.66L206.54-14.66L206.54-14.66Q206.54-26.44 212.94-33.62L212.94-33.62L212.94-33.62Q219.80-41.34 231.74-41.34L231.74-41.34L231.74-41.34Q239.15-41.34 242.81-38.22L242.81-38.22L242.81-38.22Q245.54-35.88 245.54-32.06L245.54-32.06L245.54-32.06Q245.54-18.33 221.83-18.33L221.83-18.33L221.83-18.33Q221.52-16.30 221.52-14.59L221.52-14.59L221.52-14.59Q221.52-11.00 223.12-9.63L223.12-9.63L223.12-9.63Q224.72-8.27 227.68-8.27L227.68-8.27L227.68-8.27Q230.65-8.27 233.81-9.63L233.81-9.63L233.81-9.63Q236.96-11.00 238.29-13.18ZM222.38-21.68L222.38-21.68L222.38-21.68Q227.92-21.68 231.11-25.12L231.11-25.12L231.11-25.12Q234.31-28.39 234.31-33.62L234.31-33.62L234.31-33.62Q234.31-35.41 233.65-36.39L233.65-36.39L233.65-36.39Q232.99-37.36 231.66-37.36L231.66-37.36L231.66-37.36Q230.33-37.36 229.20-36.85L229.20-36.85L229.20-36.85Q228.07-36.35 226.90-34.63L226.90-34.63L226.90-34.63Q224.02-30.73 222.38-21.68ZM249.44-7.80L249.44-7.80L249.44-7.80Q249.44-9.91 250.54-15.21L250.54-15.21L254.67-36.27L250.07-36.27L250.38-38.61L250.38-38.61Q259.74-41.42 268.79-48.28L268.79-48.28L272.53-48.28L270.66-39.78L276.74-39.78L276.04-36.27L270.04-36.27L266.06-15.21L266.06-15.21Q265.04-10.37 265.04-8.74L265.04-8.74L265.04-8.74Q265.04-4.99 268.32-4.21L268.32-4.21L268.32-4.21Q267.54-1.56 264.73 0L264.73 0L264.73 0Q261.92 1.56 257.95 1.56L257.95 1.56L257.95 1.56Q253.97 1.56 251.71-0.94L251.71-0.94L251.71-0.94Q249.44-3.43 249.44-7.80ZM327.91-41.34L327.91-41.34L327.91-41.34Q321.59-41.34 316.99-43.45L316.99-43.45L314.50-30.81L329.55-30.81L329.55-30.81Q329.55-26.68 327.48-24.06L327.48-24.06L327.48-24.06Q325.42-21.45 321.67-21.45L321.67-21.45L321.67-21.45Q317.62-21.45 313.87-22.93L313.87-22.93L313.87-22.93Q313.09-23.24 313.01-23.32L313.01-23.32L308.57 0L291.56 0L301.47-51.48L336.26-51.48L336.26-51.48Q336.26-46.72 334.04-44.03L334.04-44.03L334.04-44.03Q331.81-41.34 327.91-41.34ZM365.35-13.18L365.35-13.18L365.35-13.18Q367.30-11.86 367.30-8.93L367.30-8.93L367.30-8.93Q367.30-6.01 365.82-4.13L365.82-4.13L365.82-4.13Q364.34-2.26 361.92-1.01L361.92-1.01L361.92-1.01Q356.93 1.56 351.55 1.56L351.55 1.56L351.55 1.56Q346.16 1.56 343.01 0.39L343.01 0.39L343.01 0.39Q339.85-0.78 337.74-2.96L337.74-2.96L337.74-2.96Q333.61-7.10 333.61-14.66L333.61-14.66L333.61-14.66Q333.61-26.44 340.00-33.62L340.00-33.62L340.00-33.62Q346.87-41.34 358.80-41.34L358.80-41.34L358.80-41.34Q366.21-41.34 369.88-38.22L369.88-38.22L369.88-38.22Q372.61-35.88 372.61-32.06L372.61-32.06L372.61-32.06Q372.61-18.33 348.89-18.33L348.89-18.33L348.89-18.33Q348.58-16.30 348.58-14.59L348.58-14.59L348.58-14.59Q348.58-11.00 350.18-9.63L350.18-9.63L350.18-9.63Q351.78-8.27 354.74-8.27L354.74-8.27L354.74-8.27Q357.71-8.27 360.87-9.63L360.87-9.63L360.87-9.63Q364.03-11.00 365.35-13.18ZM349.44-21.68L349.44-21.68L349.44-21.68Q354.98-21.68 358.18-25.12L358.18-25.12L358.18-25.12Q361.37-28.39 361.37-33.62L361.37-33.62L361.37-33.62Q361.37-35.41 360.71-36.39L360.71-36.39L360.71-36.39Q360.05-37.36 358.72-37.36L358.72-37.36L358.72-37.36Q357.40-37.36 356.27-36.85L356.27-36.85L356.27-36.85Q355.13-36.35 353.96-34.63L353.96-34.63L353.96-34.63Q351.08-30.73 349.44-21.68ZM406.85-13.18L406.85-13.18L406.85-13.18Q408.80-11.86 408.80-8.93L408.80-8.93L408.80-8.93Q408.80-6.01 407.32-4.13L407.32-4.13L407.32-4.13Q405.83-2.26 403.42-1.01L403.42-1.01L403.42-1.01Q398.42 1.56 393.04 1.56L393.04 1.56L393.04 1.56Q387.66 1.56 384.50 0.39L384.50 0.39L384.50 0.39Q381.34-0.78 379.24-2.96L379.24-2.96L379.24-2.96Q375.10-7.10 375.10-14.66L375.10-14.66L375.10-14.66Q375.10-26.44 381.50-33.62L381.50-33.62L381.50-33.62Q388.36-41.34 400.30-41.34L400.30-41.34L400.30-41.34Q407.71-41.34 411.37-38.22L411.37-38.22L411.37-38.22Q414.10-35.88 414.10-32.06L414.10-32.06L414.10-32.06Q414.10-18.33 390.39-18.33L390.39-18.33L390.39-18.33Q390.08-16.30 390.08-14.59L390.08-14.59L390.08-14.59Q390.08-11.00 391.68-9.63L391.68-9.63L391.68-9.63Q393.28-8.27 396.24-8.27L396.24-8.27L396.24-8.27Q399.20-8.27 402.36-9.63L402.36-9.63L402.36-9.63Q405.52-11.00 406.85-13.18ZM390.94-21.68L390.94-21.68L390.94-21.68Q396.47-21.68 399.67-25.12L399.67-25.12L399.67-25.12Q402.87-28.39 402.87-33.62L402.87-33.62L402.87-33.62Q402.87-35.41 402.21-36.39L402.21-36.39L402.21-36.39Q401.54-37.36 400.22-37.36L400.22-37.36L400.22-37.36Q398.89-37.36 397.76-36.85L397.76-36.85L397.76-36.85Q396.63-36.35 395.46-34.63L395.46-34.63L395.46-34.63Q392.57-30.73 390.94-21.68ZM435.40-4.29L435.40-4.29L435.40-4.29Q432.98 1.56 425.26 1.56L425.26 1.56L425.26 1.56Q421.36 1.56 418.86-1.17L418.86-1.17L418.86-1.17Q416.83-3.43 416.83-6.01L416.83-6.01L416.83-6.01Q416.83-11.86 419.56-24.65L419.56-24.65L425.26-54.60L441.09-56.16L433.52-16.69L433.52-16.69Q432.20-10.92 432.20-8.89L432.20-8.89L432.20-8.89Q432.20-4.45 435.40-4.29ZM465.35-27.38L465.35-27.38L465.35-27.38Q466.44-30.26 466.44-32.76L466.44-32.76L466.44-32.76Q466.44-37.36 462.70-37.36L462.70-37.36L462.70-37.36Q460.75-37.36 459.15-35.61L459.15-35.61L459.15-35.61Q457.55-33.85 457.55-31.67L457.55-31.67L457.55-31.67Q457.55-30.11 458.80-28.86L458.80-28.86L458.80-28.86Q460.59-27.14 465.19-24.34L465.19-24.34L465.19-24.34Q469.79-21.53 471.55-19.23L471.55-19.23L471.55-19.23Q473.30-16.93 473.30-13.77L473.30-13.77L473.30-13.77Q473.30-10.61 471.78-7.72L471.78-7.72L471.78-7.72Q470.26-4.84 467.53-2.81L467.53-2.81L467.53-2.81Q461.68 1.56 452.32 1.56L452.32 1.56L452.32 1.56Q447.25 1.56 443.35-1.09L443.35-1.09L443.35-1.09Q439.45-3.67 439.45-6.71L439.45-6.71L439.45-6.71Q439.45-9.75 441.68-11.54L441.68-11.54L441.68-11.54Q443.90-13.34 447.17-13.34L447.17-13.34L447.17-13.34Q450.45-13.34 452.48-12.09L452.48-12.09L452.48-12.09Q451.46-9.52 451.46-7.80L451.46-7.80L451.46-7.80Q451.46-2.65 455.83-2.65L455.83-2.65L455.83-2.65Q457.70-2.65 458.95-3.82L458.95-3.82L458.95-3.82Q460.20-4.99 460.20-7.02L460.20-7.02L460.20-7.02Q460.20-11.00 453.49-15.21L453.49-15.21L453.49-15.21Q448.03-18.80 446.78-20.20L446.78-20.20L446.78-20.20Q444.68-22.70 444.68-25.82L444.68-25.82L444.68-25.82Q444.68-28.94 446.16-31.90L446.16-31.90L446.16-31.90Q447.64-34.87 450.37-36.97L450.37-36.97L450.37-36.97Q456.07-41.34 465.97-41.34L465.97-41.34L465.97-41.34Q471.04-41.34 474.04-39.31L474.04-39.31L474.04-39.31Q477.05-37.28 477.05-33.85L477.05-33.85L477.05-33.85Q477.05-30.42 474.98-28.47L474.98-28.47L474.98-28.47Q472.91-26.52 469.17-26.52L469.17-26.52L469.17-26.52Q466.60-26.52 465.35-27.38Z" fill="#ccc"></path></g></g><style>text {
  font-size: 64px;
  font-family: Arial Black;
  dominant-baseline: central;
  text-anchor: middle;
}</style></svg>