<svg width="555.6912353515625px" height="121.6174835205078px" xmlns="http://www.w3.org/2000/svg" viewBox="-27.845617675781227 14.191258239746098 555.6912353515625 121.6174835205078" style="background: rgba(0, 0, 0, 0);" preserveAspectRatio="xMidYMid"><defs><filter id="editing-hole" x="-100%" y="-100%" width="300%" height="300%"><feFlood flood-color="#000" result="black"></feFlood><feMorphology operator="dilate" radius="2" in="SourceGraphic" result="erode"></feMorphology><feGaussianBlur in="erode" stdDeviation="4" result="blur"></feGaussianBlur><feOffset in="blur" dx="2" dy="2" result="offset"></feOffset><feComposite operator="atop" in="offset" in2="black" result="merge"></feComposite><feComposite operator="in" in="merge" in2="SourceGraphic" result="inner-shadow"></feComposite></filter></defs><g filter="url(#editing-hole)"><g transform="translate(54.119062542915344, 98.68000030517578)"><path d="M6.53 0L-0.83 0L10.75-42.24L24.13-42.24L27.07-18.11L38.98-42.24L50.18-42.24L51.33-10.62L51.33-10.62Q51.58-4.35 54.66-2.43L54.66-2.43L54.66-2.43Q53.95-1.15 51.90 0.06L51.90 0.06L51.90 0.06Q49.86 1.28 47.14 1.28L47.14 1.28L47.14 1.28Q44.42 1.28 42.82 0.51L42.82 0.51L42.82 0.51Q41.22-0.26 40.32-1.54L40.32-1.54L40.32-1.54Q38.72-3.84 38.72-8.26L38.72-8.26L38.72-28.03L26.11 0L18.18 0L13.70-28.74L6.53 0ZM60.19-1.92L60.19-1.92L60.19-1.92Q58.69-3.58 58.02-6.21L58.02-6.21L58.02-6.21Q57.34-8.83 57.34-13.12L57.34-13.12L57.34-13.12Q57.34-17.41 58.82-21.31L58.82-21.31L58.82-21.31Q60.29-25.22 62.98-28.03L62.98-28.03L62.98-28.03Q68.48-33.92 77.57-33.92L77.57-33.92L77.57-33.92Q80.83-33.92 83.20-32.83L83.20-32.83L94.14-33.92L89.41-8.96L89.41-8.96Q89.22-8.19 89.22-6.78L89.22-6.78L89.22-6.78Q89.22-5.38 90.08-4.48L90.08-4.48L90.08-4.48Q90.94-3.58 92.22-3.46L92.22-3.46L92.22-3.46Q91.58-1.28 89.25 0L89.25 0L89.25 0Q86.91 1.28 84.29 1.28L84.29 1.28L84.29 1.28Q81.66 1.28 79.90 0.29L79.90 0.29L79.90 0.29Q78.14-0.70 77.63-2.37L77.63-2.37L77.63-2.37Q76.61-0.77 74.43 0.26L74.43 0.26L74.43 0.26Q72.26 1.28 69.34 1.28L69.34 1.28L69.34 1.28Q66.43 1.28 64.06 0.51L64.06 0.51L64.06 0.51Q61.70-0.26 60.19-1.92ZM73.70-27.90L73.70-27.90L73.70-27.90Q72.96-26.75 72.32-24.80L72.32-24.80L72.32-24.80Q71.68-22.85 70.62-17.63L70.62-17.63L70.62-17.63Q69.57-12.42 69.57-8.70L69.57-8.70L69.57-8.70Q69.57-4.99 70.14-3.90L70.14-3.90L70.14-3.90Q70.72-2.82 71.74-2.82L71.74-2.82L71.74-2.82Q73.79-2.82 75.30-4.77L75.30-4.77L75.30-4.77Q76.80-6.72 77.38-10.18L77.38-10.18L80.77-28.93L80.77-28.93Q79.42-30.08 77.86-30.08L77.86-30.08L77.86-30.08Q76.29-30.08 75.36-29.57L75.36-29.57L75.36-29.57Q74.43-29.06 73.70-27.90ZM117.63-17.98L117.63-17.98L117.63-17.98Q119.94-22.08 119.94-26.24L119.94-26.24L119.94-26.24Q119.94-28.99 117.95-28.99L117.95-28.99L117.95-28.99Q116.42-28.99 114.82-26.37L114.82-26.37L114.82-26.37Q113.15-23.74 112.64-20.35L112.64-20.35L109.31 0L96.06 1.28L102.59-32.64L113.15-33.92L112-27.46L112-27.46Q115.14-33.92 122.18-33.92L122.18-33.92L122.18-33.92Q125.89-33.92 127.90-32L127.90-32L127.90-32Q129.92-30.08 129.92-26.14L129.92-26.14L129.92-26.14Q129.92-22.21 127.33-19.71L127.33-19.71L127.33-19.71Q124.74-17.22 120.32-17.22L120.32-17.22L120.32-17.22Q118.40-17.22 117.63-17.98ZM147.46-30.34L147.46-30.34L147.46-30.34Q150.91-33.92 158.21-33.92L158.21-33.92L158.21-33.92Q162.24-33.92 164.45-31.78L164.45-31.78L164.45-31.78Q166.66-29.63 166.66-25.70L166.66-25.70L166.66-25.70Q166.66-21.76 164.45-18.98L164.45-18.98L164.45-18.98Q162.24-16.19 158.14-15.04L158.14-15.04L158.14-15.04Q158.46-13.76 158.91-12.42L158.91-12.42L159.81-9.86L159.81-9.86Q161.02-6.59 161.98-5.44L161.98-5.44L161.98-5.44Q162.94-4.29 164.22-3.90L164.22-3.90L164.22-3.90Q163.52-1.28 160.96 0.13L160.96 0.13L160.96 0.13Q158.91 1.28 156.10 1.28L156.10 1.28L156.10 1.28Q147.84 1.28 146.75-11.46L146.75-11.46L146.75-11.46Q146.56-13.25 146.56-15.04L146.56-15.04L146.56-15.04Q149.76-15.94 152-18.94L152-18.94L152-18.94Q154.24-21.95 154.24-25.47L154.24-25.47L154.24-25.47Q154.24-28.99 151.74-28.99L151.74-28.99L151.74-28.99Q149.95-28.99 148.54-27.01L148.54-27.01L148.54-27.01Q147.14-25.02 146.50-21.63L146.50-21.63L142.27 0L129.34 1.28L138.30-44.80L151.17-46.08L149.70-38.46L149.70-38.46Q148.74-33.09 147.46-30.34ZM195.52-10.82L195.52-10.82L195.52-10.82Q197.12-9.73 197.12-7.33L197.12-7.33L197.12-7.33Q197.12-4.93 195.90-3.39L195.90-3.39L195.90-3.39Q194.69-1.86 192.70-0.83L192.70-0.83L192.70-0.83Q188.61 1.28 184.19 1.28L184.19 1.28L184.19 1.28Q179.78 1.28 177.18 0.32L177.18 0.32L177.18 0.32Q174.59-0.64 172.86-2.43L172.86-2.43L172.86-2.43Q169.47-5.82 169.47-12.03L169.47-12.03L169.47-12.03Q169.47-21.70 174.72-27.58L174.72-27.58L174.72-27.58Q180.35-33.92 190.14-33.92L190.14-33.92L190.14-33.92Q196.22-33.92 199.23-31.36L199.23-31.36L199.23-31.36Q201.47-29.44 201.47-26.30L201.47-26.30L201.47-26.30Q201.47-15.04 182.02-15.04L182.02-15.04L182.02-15.04Q181.76-13.38 181.76-11.97L181.76-11.97L181.76-11.97Q181.76-9.02 183.07-7.90L183.07-7.90L183.07-7.90Q184.38-6.78 186.82-6.78L186.82-6.78L186.82-6.78Q189.25-6.78 191.84-7.90L191.84-7.90L191.84-7.90Q194.43-9.02 195.52-10.82ZM182.46-17.79L182.46-17.79L182.46-17.79Q187.01-17.79 189.63-20.61L189.63-20.61L189.63-20.61Q192.26-23.30 192.26-27.58L192.26-27.58L192.26-27.58Q192.26-29.06 191.71-29.86L191.71-29.86L191.71-29.86Q191.17-30.66 190.08-30.66L190.08-30.66L190.08-30.66Q188.99-30.66 188.06-30.24L188.06-30.24L188.06-30.24Q187.14-29.82 186.18-28.42L186.18-28.42L186.18-28.42Q183.81-25.22 182.46-17.79ZM204.67-6.40L204.67-6.40L204.67-6.40Q204.67-8.13 205.57-12.48L205.57-12.48L208.96-29.76L205.18-29.76L205.44-31.68L205.44-31.68Q213.12-33.98 220.54-39.62L220.54-39.62L223.62-39.62L222.08-32.64L227.07-32.64L226.50-29.76L221.57-29.76L218.30-12.48L218.30-12.48Q217.47-8.51 217.47-7.17L217.47-7.17L217.47-7.17Q217.47-4.10 220.16-3.46L220.16-3.46L220.16-3.46Q219.52-1.28 217.22 0L217.22 0L217.22 0Q214.91 1.28 211.65 1.28L211.65 1.28L211.65 1.28Q208.38 1.28 206.53-0.77L206.53-0.77L206.53-0.77Q204.67-2.82 204.67-6.40ZM269.06-33.92L269.06-33.92L269.06-33.92Q263.87-33.92 260.10-35.65L260.10-35.65L258.05-25.28L270.40-25.28L270.40-25.28Q270.40-21.89 268.70-19.74L268.70-19.74L268.70-19.74Q267.01-17.60 263.94-17.60L263.94-17.60L263.94-17.60Q260.61-17.60 257.54-18.82L257.54-18.82L257.54-18.82Q256.90-19.07 256.83-19.14L256.83-19.14L253.18 0L239.23 0L247.36-42.24L275.90-42.24L275.90-42.24Q275.90-38.34 274.08-36.13L274.08-36.13L274.08-36.13Q272.26-33.92 269.06-33.92ZM299.78-10.82L299.78-10.82L299.78-10.82Q301.38-9.73 301.38-7.33L301.38-7.33L301.38-7.33Q301.38-4.93 300.16-3.39L300.16-3.39L300.16-3.39Q298.94-1.86 296.96-0.83L296.96-0.83L296.96-0.83Q292.86 1.28 288.45 1.28L288.45 1.28L288.45 1.28Q284.03 1.28 281.44 0.32L281.44 0.32L281.44 0.32Q278.85-0.64 277.12-2.43L277.12-2.43L277.12-2.43Q273.73-5.82 273.73-12.03L273.73-12.03L273.73-12.03Q273.73-21.70 278.98-27.58L278.98-27.58L278.98-27.58Q284.61-33.92 294.40-33.92L294.40-33.92L294.40-33.92Q300.48-33.92 303.49-31.36L303.49-31.36L303.49-31.36Q305.73-29.44 305.73-26.30L305.73-26.30L305.73-26.30Q305.73-15.04 286.27-15.04L286.27-15.04L286.27-15.04Q286.02-13.38 286.02-11.97L286.02-11.97L286.02-11.97Q286.02-9.02 287.33-7.90L287.33-7.90L287.33-7.90Q288.64-6.78 291.07-6.78L291.07-6.78L291.07-6.78Q293.50-6.78 296.10-7.90L296.10-7.90L296.10-7.90Q298.69-9.02 299.78-10.82ZM286.72-17.79L286.72-17.79L286.72-17.79Q291.26-17.79 293.89-20.61L293.89-20.61L293.89-20.61Q296.51-23.30 296.51-27.58L296.51-27.58L296.51-27.58Q296.51-29.06 295.97-29.86L295.97-29.86L295.97-29.86Q295.42-30.66 294.34-30.66L294.34-30.66L294.34-30.66Q293.25-30.66 292.32-30.24L292.32-30.24L292.32-30.24Q291.39-29.82 290.43-28.42L290.43-28.42L290.43-28.42Q288.06-25.22 286.72-17.79ZM333.82-10.82L333.82-10.82L333.82-10.82Q335.42-9.73 335.42-7.33L335.42-7.33L335.42-7.33Q335.42-4.93 334.21-3.39L334.21-3.39L334.21-3.39Q332.99-1.86 331.01-0.83L331.01-0.83L331.01-0.83Q326.91 1.28 322.50 1.28L322.50 1.28L322.50 1.28Q318.08 1.28 315.49 0.32L315.49 0.32L315.49 0.32Q312.90-0.64 311.17-2.43L311.17-2.43L311.17-2.43Q307.78-5.82 307.78-12.03L307.78-12.03L307.78-12.03Q307.78-21.70 313.02-27.58L313.02-27.58L313.02-27.58Q318.66-33.92 328.45-33.92L328.45-33.92L328.45-33.92Q334.53-33.92 337.54-31.36L337.54-31.36L337.54-31.36Q339.78-29.44 339.78-26.30L339.78-26.30L339.78-26.30Q339.78-15.04 320.32-15.04L320.32-15.04L320.32-15.04Q320.06-13.38 320.06-11.97L320.06-11.97L320.06-11.97Q320.06-9.02 321.38-7.90L321.38-7.90L321.38-7.90Q322.69-6.78 325.12-6.78L325.12-6.78L325.12-6.78Q327.55-6.78 330.14-7.90L330.14-7.90L330.14-7.90Q332.74-9.02 333.82-10.82ZM320.77-17.79L320.77-17.79L320.77-17.79Q325.31-17.79 327.94-20.61L327.94-20.61L327.94-20.61Q330.56-23.30 330.56-27.58L330.56-27.58L330.56-27.58Q330.56-29.06 330.02-29.86L330.02-29.86L330.02-29.86Q329.47-30.66 328.38-30.66L328.38-30.66L328.38-30.66Q327.30-30.66 326.37-30.24L326.37-30.24L326.37-30.24Q325.44-29.82 324.48-28.42L324.48-28.42L324.48-28.42Q322.11-25.22 320.77-17.79ZM357.25-3.52L357.25-3.52L357.25-3.52Q355.26 1.28 348.93 1.28L348.93 1.28L348.93 1.28Q345.73 1.28 343.68-0.96L343.68-0.96L343.68-0.96Q342.02-2.82 342.02-4.93L342.02-4.93L342.02-4.93Q342.02-9.73 344.26-20.22L344.26-20.22L348.93-44.80L361.92-46.08L355.71-13.70L355.71-13.70Q354.62-8.96 354.62-7.30L354.62-7.30L354.62-7.30Q354.62-3.65 357.25-3.52ZM381.82-22.46L381.82-22.46L381.82-22.46Q382.72-24.83 382.72-26.88L382.72-26.88L382.72-26.88Q382.72-30.66 379.65-30.66L379.65-30.66L379.65-30.66Q378.05-30.66 376.74-29.22L376.74-29.22L376.74-29.22Q375.42-27.78 375.42-25.98L375.42-25.98L375.42-25.98Q375.42-24.70 376.45-23.68L376.45-23.68L376.45-23.68Q377.92-22.27 381.70-19.97L381.70-19.97L381.70-19.97Q385.47-17.66 386.91-15.78L386.91-15.78L386.91-15.78Q388.35-13.89 388.35-11.30L388.35-11.30L388.35-11.30Q388.35-8.70 387.10-6.34L387.10-6.34L387.10-6.34Q385.86-3.97 383.62-2.30L383.62-2.30L383.62-2.30Q378.82 1.28 371.14 1.28L371.14 1.28L371.14 1.28Q366.98 1.28 363.78-0.90L363.78-0.90L363.78-0.90Q360.58-3.01 360.58-5.50L360.58-5.50L360.58-5.50Q360.58-8 362.40-9.47L362.40-9.47L362.40-9.47Q364.22-10.94 366.91-10.94L366.91-10.94L366.91-10.94Q369.60-10.94 371.26-9.92L371.26-9.92L371.26-9.92Q370.43-7.81 370.43-6.40L370.43-6.40L370.43-6.40Q370.43-2.18 374.02-2.18L374.02-2.18L374.02-2.18Q375.55-2.18 376.58-3.14L376.58-3.14L376.58-3.14Q377.60-4.10 377.60-5.76L377.60-5.76L377.60-5.76Q377.60-9.02 372.10-12.48L372.10-12.48L372.10-12.48Q367.62-15.42 366.59-16.58L366.59-16.58L366.59-16.58Q364.86-18.62 364.86-21.18L364.86-21.18L364.86-21.18Q364.86-23.74 366.08-26.18L366.08-26.18L366.08-26.18Q367.30-28.61 369.54-30.34L369.54-30.34L369.54-30.34Q374.21-33.92 382.34-33.92L382.34-33.92L382.34-33.92Q386.50-33.92 388.96-32.26L388.96-32.26L388.96-32.26Q391.42-30.59 391.42-27.78L391.42-27.78L391.42-27.78Q391.42-24.96 389.73-23.36L389.73-23.36L389.73-23.36Q388.03-21.76 384.96-21.76L384.96-21.76L384.96-21.76Q382.85-21.76 381.82-22.46Z" fill="#ccc"></path></g></g><style>text {
  font-size: 64px;
  font-family: Arial Black;
  dominant-baseline: central;
  text-anchor: middle;
}</style></svg>